<svg width="70" height="100" viewBox="0 0 70 100" fill="none" xmlns="http://www.w3.org/2000/svg">
<rect x="1" y="1" width="68" height="98" rx="9" fill="white" stroke="#2D3648" stroke-width="2"/>
<path d="M39.7313 41.6863C39.8171 41.5908 39.8842 41.4786 39.9288 41.3559C39.9733 41.2333 39.9944 41.1026 39.9909 40.9714C39.9873 40.8402 39.9592 40.711 39.9082 40.5911C39.8571 40.4713 39.784 40.3633 39.6932 40.2731C39.6024 40.1829 39.4955 40.1124 39.3787 40.0656C39.262 40.0189 39.1376 39.9967 39.0126 40.0004C38.8877 40.0041 38.7647 40.0336 38.6506 40.0873C38.5365 40.1409 38.4336 40.2177 38.3478 40.3131L30.2601 49.3078C30.0931 49.4933 30 49.739 30 49.9944C30 50.2497 30.0931 50.4954 30.2601 50.681L38.3478 59.6767C38.4331 59.7742 38.5359 59.8529 38.6504 59.9083C38.7649 59.9637 38.8887 59.9947 39.0147 59.9994C39.1407 60.0041 39.2663 59.9824 39.3842 59.9357C39.5022 59.889 39.6101 59.8181 39.7018 59.7272C39.7934 59.6363 39.867 59.5272 39.9181 59.4062C39.9693 59.2852 39.997 59.1547 39.9998 59.0223C40.0025 58.89 39.9802 58.7584 39.9341 58.6351C39.888 58.5119 39.8191 58.3995 39.7313 58.3045L32.2601 49.9944L39.7313 41.6863Z" fill="#2D3648"/>
</svg>
