<svg width="25" height="25" viewBox="0 0 25 25" fill="none" xmlns="http://www.w3.org/2000/svg">
<path d="M3.48611 22.4768H21.5133C23.6897 22.4768 24.7991 21.3884 24.7991 19.233V8.2781C24.7991 6.12275 23.6897 5.04507 21.5133 5.04507H19.0651C18.2491 5.04507 17.9982 4.87766 17.5272 4.35444L16.6794 3.41248C16.1669 2.83748 15.6334 2.52319 14.545 2.52319H10.3808C9.30308 2.52319 8.76915 2.83748 8.24638 3.41248L7.39861 4.35444C6.93834 4.86694 6.67674 5.04507 5.86067 5.04507H3.48567C1.30933 5.04507 0.199951 6.12275 0.199951 8.2781V19.233C0.199951 21.3884 1.30977 22.4768 3.48611 22.4768ZM12.4946 19.1285C9.33433 19.1285 6.79192 16.5857 6.79192 13.4053C6.79192 10.2241 9.33433 7.68212 12.4941 7.68212C15.675 7.68212 18.2071 10.2241 18.2071 13.4053C18.2071 16.5857 15.6647 19.1285 12.4941 19.1285M20.0169 10.8518C19.3053 10.8518 18.7196 10.2768 18.7196 9.56516C18.7196 9.22109 18.8563 8.89111 19.0996 8.64781C19.3429 8.40452 19.6728 8.26784 20.0169 8.26784C20.361 8.26784 20.691 8.40452 20.9343 8.64781C21.1776 8.89111 21.3142 9.22109 21.3142 9.56516C21.3142 10.2768 20.7285 10.8518 20.0169 10.8518ZM12.4946 17.5384C13.0375 17.539 13.5753 17.4326 14.077 17.2251C14.5787 17.0176 15.0346 16.7132 15.4185 16.3293C15.8025 15.9454 16.1069 15.4895 16.3143 14.9877C16.5218 14.486 16.6283 13.9483 16.6276 13.4053C16.6282 12.8624 16.5217 12.3247 16.3142 11.8231C16.1067 11.3214 15.8023 10.8656 15.4184 10.4817C15.0345 10.0978 14.5786 9.79344 14.0769 9.586C13.5752 9.37855 13.0375 9.2721 12.4946 9.27275C10.2133 9.27275 8.37227 11.1143 8.37227 13.4053C8.37227 15.6969 10.2241 17.5384 12.4946 17.5384Z" fill="#2D3648"/>
</svg>
