<svg width="80" height="56" viewBox="0 0 80 56" fill="none" xmlns="http://www.w3.org/2000/svg">
<path opacity="0.15" d="M32.5 44.25C32.5 45.9806 31.9868 47.6723 31.0254 49.1112C30.0639 50.5501 28.6973 51.6716 27.0985 52.3339C25.4996 52.9962 23.7403 53.1695 22.043 52.8318C20.3456 52.4942 18.7865 51.6609 17.5628 50.4372C16.3391 49.2135 15.5057 47.6543 15.1681 45.957C14.8305 44.2597 15.0038 42.5003 15.6661 40.9015C16.3283 39.3026 17.4498 37.9361 18.8888 36.9746C20.3277 36.0132 22.0194 35.5 23.75 35.5C26.0706 35.5 28.2962 36.4218 29.9372 38.0628C31.5781 39.7037 32.5 41.9293 32.5 44.25ZM56.25 35.5C54.5194 35.5 52.8277 36.0132 51.3888 36.9746C49.9498 37.9361 48.8283 39.3026 48.1661 40.9015C47.5038 42.5003 47.3305 44.2597 47.6681 45.957C48.0057 47.6543 48.8391 49.2135 50.0628 50.4372C51.2865 51.6609 52.8456 52.4942 54.543 52.8318C56.2403 53.1695 57.9996 52.9962 59.5985 52.3339C61.1973 51.6716 62.5639 50.5501 63.5254 49.1112C64.4868 47.6723 65 45.9806 65 44.25C65 41.9293 64.0781 39.7037 62.4372 38.0628C60.7962 36.4218 58.5706 35.5 56.25 35.5ZM51.9094 4.02809C51.683 3.71805 51.3883 3.46431 51.048 3.28654C50.7078 3.10876 50.3312 3.01173 49.9474 3.00297C49.5636 2.99421 49.1829 3.07395 48.8349 3.236C48.4869 3.39806 48.1809 3.63809 47.9406 3.93747L43.8969 8.62497C43.4283 9.20781 42.835 9.67813 42.1606 10.0013C41.4862 10.3244 40.7478 10.4922 40 10.4922C39.2522 10.4922 38.5139 10.3244 37.8394 10.0013C37.165 9.67813 36.5717 9.20781 36.1031 8.62497L32.0594 3.93747C31.8191 3.63809 31.5131 3.39806 31.1651 3.236C30.8171 3.07395 30.4364 2.99421 30.0526 3.00297C29.6688 3.01173 29.2922 3.10876 28.952 3.28654C28.6117 3.46431 28.317 3.71805 28.0906 4.02809L12.5 25.5H67.5L51.9094 4.02809Z" fill="#1C2F93"/>
<path d="M77.5 23H68.775L53.9313 2.55937C53.4814 1.94178 52.8961 1.43549 52.2201 1.07938C51.5441 0.723263 50.7955 0.5268 50.0318 0.505074C49.2681 0.483348 48.5095 0.636937 47.8144 0.954047C47.1193 1.27116 46.5061 1.74335 46.0219 2.33437L42.0062 6.99062L41.9437 7.0625C41.7111 7.3548 41.4155 7.59087 41.0789 7.75312C40.7424 7.91537 40.3736 7.99963 40 7.99963C39.6264 7.99963 39.2576 7.91537 38.9211 7.75312C38.5845 7.59087 38.2889 7.3548 38.0563 7.0625L37.9938 6.99062L33.9781 2.33437C33.4939 1.74335 32.8807 1.27116 32.1856 0.954047C31.4905 0.636937 30.7319 0.483348 29.9682 0.505074C29.2045 0.5268 28.4559 0.723263 27.7799 1.07938C27.1039 1.43549 26.5186 1.94178 26.0687 2.55937L11.225 23H2.5C1.83696 23 1.20107 23.2634 0.732233 23.7322C0.263392 24.2011 0 24.837 0 25.5C0 26.163 0.263392 26.7989 0.732233 27.2678C1.20107 27.7366 1.83696 28 2.5 28H77.5C78.163 28 78.7989 27.7366 79.2678 27.2678C79.7366 26.7989 80 26.163 80 25.5C80 24.837 79.7366 24.2011 79.2678 23.7322C78.7989 23.2634 78.163 23 77.5 23ZM30.1062 5.5L30.1656 5.575L34.1812 10.2281C34.8845 11.0929 35.7717 11.79 36.7782 12.2688C37.7848 12.7476 38.8854 12.9961 40 12.9961C41.1146 12.9961 42.2152 12.7476 43.2218 12.2688C44.2283 11.79 45.1155 11.0929 45.8187 10.2281L49.8344 5.575C49.8531 5.55 49.8656 5.525 49.8875 5.5L62.5938 23H17.4031L30.1062 5.5ZM56.25 33C53.4831 33.0005 50.8135 34.0207 48.7514 35.8655C46.6893 37.7103 45.3793 40.2503 45.0719 43H34.9281C34.62 40.2528 33.3111 37.7152 31.2513 35.8715C29.1915 34.0278 26.5249 33.007 23.7605 33.004C20.9961 33.001 18.3273 34.0159 16.2635 35.8552C14.1996 37.6944 12.8852 40.2291 12.5711 42.9756C12.257 45.7222 12.9651 48.4882 14.5603 50.7459C16.1556 53.0036 18.5263 54.595 21.22 55.2162C23.9137 55.8375 26.7419 55.4452 29.1648 54.1142C31.5877 52.7832 33.4358 50.6067 34.3563 48H45.6437C46.3312 49.9445 47.5401 51.6627 49.1381 52.9666C50.7362 54.2705 52.6619 55.11 54.7049 55.3933C56.7478 55.6767 58.8293 55.393 60.7219 54.5732C62.6145 53.7534 64.2453 52.4291 65.436 50.7451C66.6268 49.061 67.3317 47.082 67.4737 45.0244C67.6156 42.9668 67.1892 40.9098 66.2411 39.0781C65.2929 37.2465 63.8594 35.7108 62.0974 34.6388C60.3353 33.5669 58.3125 32.9999 56.25 33ZM23.75 50.5C22.5139 50.5 21.3055 50.1334 20.2777 49.4467C19.2499 48.7599 18.4488 47.7838 17.9758 46.6418C17.5027 45.4997 17.3789 44.2431 17.6201 43.0307C17.8612 41.8183 18.4565 40.7047 19.3306 39.8306C20.2047 38.9565 21.3183 38.3613 22.5307 38.1201C23.7431 37.8789 24.9997 38.0027 26.1418 38.4758C27.2838 38.9488 28.2599 39.7499 28.9467 40.7777C29.6334 41.8055 30 43.0139 30 44.25C30 45.0708 29.8383 45.8835 29.5242 46.6418C29.2102 47.4001 28.7498 48.0891 28.1694 48.6694C27.5891 49.2498 26.9001 49.7102 26.1418 50.0243C25.3835 50.3383 24.5708 50.5 23.75 50.5ZM56.25 50.5C55.0139 50.5 53.8055 50.1334 52.7777 49.4467C51.7499 48.7599 50.9488 47.7838 50.4758 46.6418C50.0027 45.4997 49.8789 44.2431 50.1201 43.0307C50.3612 41.8183 50.9565 40.7047 51.8306 39.8306C52.7047 38.9565 53.8183 38.3613 55.0307 38.1201C56.2431 37.8789 57.4997 38.0027 58.6418 38.4758C59.7838 38.9488 60.7599 39.7499 61.4467 40.7777C62.1334 41.8055 62.5 43.0139 62.5 44.25C62.5 45.9076 61.8415 47.4973 60.6694 48.6694C59.4973 49.8415 57.9076 50.5 56.25 50.5Z" fill="#1C2F93"/>
</svg>
