<svg width="154" height="154" viewBox="0 0 154 154" fill="none" xmlns="http://www.w3.org/2000/svg">
<g id="ph:detective-duotone" clip-path="url(#clip0_10_716)">
<g id="Group">
<path id="Vector" opacity="0.15" d="M62.5625 108.281C62.5625 111.613 61.5746 114.869 59.7238 117.639C57.873 120.409 55.2424 122.568 52.1646 123.843C49.0868 125.118 45.7001 125.451 42.4327 124.801C39.1653 124.151 36.1641 122.547 33.8084 120.192C31.4528 117.836 29.8486 114.835 29.1986 111.567C28.5487 108.3 28.8823 104.913 30.1572 101.835C31.432 98.7576 33.5909 96.127 36.3609 94.2762C39.1308 92.4254 42.3874 91.4375 45.7188 91.4375C50.186 91.4375 54.4703 93.2121 57.6291 96.3709C60.7879 99.5297 62.5625 103.814 62.5625 108.281ZM108.281 91.4375C104.95 91.4375 101.693 92.4254 98.9234 94.2762C96.1534 96.127 93.9945 98.7576 92.7197 101.835C91.4448 104.913 91.1112 108.3 91.7611 111.567C92.4111 114.835 94.0153 117.836 96.3709 120.192C98.7266 122.547 101.728 124.151 104.995 124.801C108.263 125.451 111.649 125.118 114.727 123.843C117.805 122.568 120.436 120.409 122.286 117.639C124.137 114.869 125.125 111.613 125.125 108.281C125.125 103.814 123.35 99.5297 120.192 96.3709C117.033 93.2121 112.748 91.4375 108.281 91.4375ZM99.9255 30.8541C99.4898 30.2573 98.9224 29.7689 98.2674 29.4266C97.6125 29.0844 96.8875 28.8977 96.1487 28.8808C95.4099 28.8639 94.6771 29.0174 94.0072 29.3294C93.3373 29.6413 92.7483 30.1034 92.2857 30.6797L84.5015 39.7031C83.5995 40.8251 82.4573 41.7305 81.1591 42.3525C79.8608 42.9746 78.4396 43.2975 77 43.2975C75.5604 43.2975 74.1392 42.9746 72.8409 42.3525C71.5427 41.7305 70.4005 40.8251 69.4985 39.7031L61.7143 30.6797C61.2517 30.1034 60.6627 29.6413 59.9928 29.3294C59.3229 29.0174 58.5901 28.8639 57.8513 28.8808C57.1125 28.8977 56.3875 29.0844 55.7326 29.4266C55.0776 29.7689 54.5102 30.2573 54.0745 30.8541L24.0625 72.1875H129.938L99.9255 30.8541Z" fill="#F6F6F6"/>
<path id="Vector_2" d="M149.188 67.375H132.392L103.818 28.0268C102.952 26.8379 101.825 25.8633 100.524 25.1778C99.2224 24.4923 97.7814 24.1141 96.3112 24.0723C94.841 24.0304 93.3808 24.3261 92.0427 24.9365C90.7046 25.547 89.5242 26.456 88.5921 27.5937L80.862 36.557L80.7417 36.6953C80.2938 37.258 79.7248 37.7124 79.077 38.0248C78.4291 38.3371 77.7192 38.4993 77 38.4993C76.2808 38.4993 75.5709 38.3371 74.9231 38.0248C74.2752 37.7124 73.7062 37.258 73.2583 36.6953L73.138 36.557L65.4079 27.5937C64.4758 26.456 63.2954 25.547 61.9573 24.9365C60.6192 24.3261 59.159 24.0304 57.6888 24.0723C56.2186 24.1141 54.7776 24.4923 53.4763 25.1778C52.1751 25.8633 51.0482 26.8379 50.1823 28.0268L21.6081 67.375H4.8125C3.53615 67.375 2.31207 67.882 1.40955 68.7845C0.50703 69.6871 0 70.9111 0 72.1875C0 73.4639 0.50703 74.6879 1.40955 75.5905C2.31207 76.493 3.53615 77 4.8125 77H149.188C150.464 77 151.688 76.493 152.59 75.5905C153.493 74.6879 154 73.4639 154 72.1875C154 70.9111 153.493 69.6871 152.59 68.7845C151.688 67.882 150.464 67.375 149.188 67.375ZM57.9545 33.6875L58.0688 33.8319L65.7989 42.7891C67.1527 44.4538 68.8605 45.7958 70.7981 46.7175C72.7357 47.6392 74.8543 48.1175 77 48.1175C79.1457 48.1175 81.2643 47.6392 83.2019 46.7175C85.1395 45.7958 86.8473 44.4538 88.2011 42.7891L95.9312 33.8319C95.9673 33.7838 95.9913 33.7356 96.0334 33.6875L120.493 67.375H33.501L57.9545 33.6875ZM108.281 86.625C102.955 86.626 97.816 88.5898 93.8464 92.141C89.8768 95.6922 87.3552 100.582 86.7634 105.875H67.2366C66.6435 100.587 64.1239 95.7018 60.1588 92.1526C56.1936 88.6035 51.0605 86.6385 45.739 86.6327C40.4174 86.6269 35.28 88.5807 31.3072 92.1212C27.3343 95.6617 24.8041 100.541 24.1994 105.828C23.5947 111.115 24.9578 116.44 28.0286 120.786C31.0995 125.132 35.663 128.195 40.8485 129.391C46.0339 130.587 51.4781 129.832 56.1422 127.27C60.8064 124.708 64.3638 120.518 66.1358 115.5H87.8642C89.1877 119.243 91.5147 122.551 94.5909 125.061C97.6671 127.571 101.374 129.187 105.307 129.732C109.24 130.278 113.246 129.731 116.89 128.153C120.533 126.575 123.672 124.026 125.964 120.784C128.257 117.542 129.613 113.733 129.887 109.772C130.16 105.811 129.339 101.851 127.514 98.3254C125.689 94.7995 122.929 91.8433 119.537 89.7797C116.146 87.7162 112.252 86.6249 108.281 86.625ZM45.7188 120.313C43.3392 120.313 41.0131 119.607 39.0345 118.285C37.056 116.963 35.5139 115.084 34.6033 112.885C33.6927 110.687 33.4544 108.268 33.9187 105.934C34.3829 103.6 35.5288 101.456 37.2114 99.7739C38.894 98.0913 41.0377 96.9454 43.3716 96.4812C45.7054 96.0169 48.1245 96.2552 50.3229 97.1658C52.5213 98.0764 54.4004 99.6185 55.7224 101.597C57.0444 103.576 57.75 105.902 57.75 108.281C57.75 109.861 57.4388 111.426 56.8342 112.885C56.2295 114.345 55.3433 115.671 54.2261 116.789C53.1089 117.906 51.7826 118.792 50.3229 119.397C48.8632 120.001 47.2987 120.313 45.7188 120.313ZM108.281 120.313C105.902 120.313 103.576 119.607 101.597 118.285C99.6185 116.963 98.0764 115.084 97.1658 112.885C96.2552 110.687 96.0169 108.268 96.4812 105.934C96.9454 103.6 98.0913 101.456 99.7739 99.7739C101.456 98.0913 103.6 96.9454 105.934 96.4812C108.268 96.0169 110.687 96.2552 112.885 97.1658C115.084 98.0764 116.963 99.6185 118.285 101.597C119.607 103.576 120.312 105.902 120.312 108.281C120.312 111.472 119.045 114.532 116.789 116.789C114.532 119.045 111.472 120.313 108.281 120.313Z" fill="#F6F6F6"/>
</g>
</g>
<defs>
<clipPath id="clip0_10_716">
<rect width="154" height="154" fill="white"/>
</clipPath>
</defs>
</svg>
