<svg width="70" height="100" viewBox="0 0 70 100" fill="none" xmlns="http://www.w3.org/2000/svg">
<rect x="69" y="99" width="68" height="98" rx="9" transform="rotate(-180 69 99)" fill="white" stroke="#2D3648" stroke-width="2"/>
<path d="M30.2687 58.3137C30.1829 58.4092 30.1158 58.5214 30.0712 58.6441C30.0267 58.7667 30.0056 58.8974 30.0091 59.0286C30.0127 59.1598 30.0408 59.289 30.0918 59.4089C30.1429 59.5287 30.216 59.6367 30.3068 59.7269C30.3976 59.8171 30.5045 59.8876 30.6213 59.9344C30.738 59.9811 30.8624 60.0033 30.9874 59.9996C31.1123 59.9959 31.2353 59.9664 31.3494 59.9127C31.4635 59.8591 31.5664 59.7823 31.6522 59.6869L39.7399 50.6922C39.9069 50.5067 40 50.261 40 50.0056C40 49.7503 39.9069 49.5046 39.7399 49.319L31.6522 40.3233C31.5669 40.2258 31.4641 40.1471 31.3496 40.0917C31.2351 40.0363 31.1113 40.0053 30.9853 40.0006C30.8593 39.9959 30.7337 40.0176 30.6158 40.0643C30.4978 40.111 30.3899 40.1819 30.2982 40.2728C30.2066 40.3637 30.133 40.4728 30.0819 40.5938C30.0307 40.7148 30.003 40.8453 30.0002 40.9777C29.9975 41.11 30.0198 41.2416 30.0659 41.3649C30.112 41.4881 30.1809 41.6005 30.2687 41.6955L37.7399 50.0056L30.2687 58.3137Z" fill="#2D3648"/>
</svg>
