<svg width="32" height="32" viewBox="0 0 32 32" fill="none" xmlns="http://www.w3.org/2000/svg">
<path d="M9.3335 9.33325H8.00016C7.29292 9.33325 6.61464 9.6142 6.11454 10.1143C5.61445 10.6144 5.3335 11.2927 5.3335 11.9999V23.9999C5.3335 24.7072 5.61445 25.3854 6.11454 25.8855C6.61464 26.3856 7.29292 26.6666 8.00016 26.6666H20.0002C20.7074 26.6666 21.3857 26.3856 21.8858 25.8855C22.3859 25.3854 22.6668 24.7072 22.6668 23.9999V22.6666" stroke="#2D3648" stroke-width="2.66667" stroke-linecap="round" stroke-linejoin="round"/>
<path d="M21.3333 6.66657L25.3333 10.6666M27.18 8.7799C27.7051 8.25477 28.0001 7.54254 28.0001 6.7999C28.0001 6.05725 27.7051 5.34503 27.18 4.8199C26.6549 4.29477 25.9426 3.99976 25.2 3.99976C24.4574 3.99976 23.7451 4.29477 23.22 4.8199L12 15.9999V19.9999H16L27.18 8.7799Z" stroke="#2D3648" stroke-width="2.66667" stroke-linecap="round" stroke-linejoin="round"/>
</svg>
